Coordinates
version=1
nRows=21
nColumns=12
inDegrees=yes

Units are S.I. units (second, meters, Newtons, ...)
Angles are in degrees

endheader
time	SC_y	SC_z	SC_x	AC_y	AC_z	AC_x	GH_y	GH_z	GH_yy	EL_x	PS_y
       0.0               -51.7          16.23           27.5          53.62           -8.3         0.6573         -137.1          51.03         -164.0          6.777          22.38
   0.04565              -51.69          16.24           27.5          53.62         -8.298         0.6556         -137.1          51.03         -164.0          6.782          22.39
   0.09131              -51.68          16.24          27.51          53.61         -8.296         0.6539         -137.1          51.02         -163.9          6.787           22.4
     0.137              -51.68          16.24          27.51          53.61         -8.294          0.652         -137.0          51.02         -163.9          6.793          22.41
    0.1826              -51.67          16.25          27.51           53.6         -8.291         0.6501         -137.0          51.01         -163.9          6.798          22.43
    0.2283              -51.67          16.25          27.52           53.6         -8.289          0.648         -136.9          51.01         -163.8          6.804          22.44
    0.2739              -51.66          16.26          27.52          53.59         -8.286         0.6457         -136.9           51.0         -163.8          6.811          22.46
    0.3196              -51.65          16.26          27.53          53.59         -8.283         0.6433         -136.8           51.0         -163.7          6.818          22.47
    0.3652              -51.64          16.27          27.53          53.58          -8.28         0.6407         -136.8          50.99         -163.7          6.825          22.49
    0.4109              -51.63          16.27          27.54          53.58         -8.276          0.638         -136.7          50.98         -163.6          6.833          22.51
    0.4565              -51.62          16.28          27.54          53.57         -8.273          0.635         -136.6          50.97         -163.5          6.842          22.53
    0.5022              -51.61          16.28          27.55          53.57         -8.269         0.6318         -136.6          50.96         -163.5          6.851          22.55
    0.5478               -51.6          16.29          27.55          53.56         -8.264         0.6284         -136.5          50.95         -163.4          6.861          22.57
    0.5935              -51.59           16.3          27.56          53.55          -8.26         0.6247         -136.4          50.94         -163.3          6.872           22.6
    0.6391              -51.58          16.31          27.57          53.54         -8.255         0.6207         -136.3          50.93         -163.2          6.883          22.62
    0.6848              -51.56          16.32          27.58          53.53         -8.249         0.6163         -136.2          50.92         -163.1          6.896          22.65
    0.7304              -51.55          16.33          27.58          53.52         -8.244         0.6116         -136.1          50.91         -163.0           6.91          22.68
    0.7761              -51.53          16.34          27.59          53.51         -8.237         0.6064         -136.0          50.89         -162.9          6.925          22.72
    0.8218              -51.52          16.35           27.6           53.5          -8.23         0.6008         -135.9          50.88         -162.8          6.941          22.76
    0.8674               -51.5          16.36          27.62          53.49         -8.223         0.5946         -135.8          50.86         -162.6          6.959           22.8
    0.9131              -51.47          16.38          27.63          53.48         -8.214         0.5878         -135.6          50.84         -162.5          6.978          22.84
